<?xml version="1.0" encoding="UTF-8" standalone="no"?>
<!DOCTYPE svg PUBLIC "-//W3C//DTD SVG 1.1//EN"
 "http://www.w3.org/Graphics/SVG/1.1/DTD/svg11.dtd">
<!-- Generated by graphviz version 9.0.0 (20230911.1827)
 -->
<!-- Pages: 1 -->
<svg width="202pt" height="188pt"
 viewBox="0.00 0.00 201.94 188.00" xmlns="http://www.w3.org/2000/svg" xmlns:xlink="http://www.w3.org/1999/xlink">
<g id="graph0" class="graph" transform="scale(1 1) rotate(0) translate(4 184)">
<polygon fill="white" stroke="none" points="-4,4 -4,-184 197.94,-184 197.94,4 -4,4"/>
<!-- Start -->
<g id="node1" class="node">
<title>Start</title>
<ellipse fill="none" stroke="black" cx="96.97" cy="-162" rx="28.11" ry="18"/>
<text text-anchor="middle" x="96.97" y="-156.57" font-family="Times New Roman,serif" font-size="14.00">Start</text>
</g>
<!-- HelloWorld -->
<g id="node2" class="node">
<title>HelloWorld</title>
<ellipse fill="none" stroke="black" cx="96.97" cy="-90" rx="96.97" ry="18"/>
<text text-anchor="middle" x="96.97" y="-84.58" font-family="Times New Roman,serif" font-size="14.00">Procedure: HelloWorld</text>
</g>
<!-- Start&#45;&gt;HelloWorld -->
<g id="edge1" class="edge">
<title>Start&#45;&gt;HelloWorld</title>
<path fill="none" stroke="black" d="M96.97,-143.7C96.97,-136.41 96.97,-127.73 96.97,-119.54"/>
<polygon fill="black" stroke="black" points="100.47,-119.62 96.97,-109.62 93.47,-119.62 100.47,-119.62"/>
</g>
<!-- End -->
<g id="node3" class="node">
<title>End</title>
<ellipse fill="none" stroke="black" cx="96.97" cy="-18" rx="27" ry="18"/>
<text text-anchor="middle" x="96.97" y="-12.57" font-family="Times New Roman,serif" font-size="14.00">End</text>
</g>
<!-- HelloWorld&#45;&gt;End -->
<g id="edge2" class="edge">
<title>HelloWorld&#45;&gt;End</title>
<path fill="none" stroke="black" d="M96.97,-71.7C96.97,-64.41 96.97,-55.73 96.97,-47.54"/>
<polygon fill="black" stroke="black" points="100.47,-47.62 96.97,-37.62 93.47,-47.62 100.47,-47.62"/>
</g>
</g>
</svg>
